<?xml version="1.0" encoding="UTF-8" standalone="no"?>
<!-- Created with Inkscape (http://www.inkscape.org/) -->

<svg
   version="1.1"
   id="svg1"
   width="2048"
   height="2048"
   viewBox="0 0 2048 2048"
   sodipodi:docname="logo.svg"
   inkscape:export-filename="logos.svg"
   inkscape:export-xdpi="101.9"
   inkscape:export-ydpi="101.9"
   inkscape:version="1.4.2 (ebf0e940d0, 2025-05-08)"
   xmlns:inkscape="http://www.inkscape.org/namespaces/inkscape"
   xmlns:sodipodi="http://sodipodi.sourceforge.net/DTD/sodipodi-0.dtd"
   xmlns="http://www.w3.org/2000/svg"
   xmlns:svg="http://www.w3.org/2000/svg">
  <sodipodi:namedview
     id="namedview1"
     pagecolor="#505050"
     bordercolor="#ffffff"
     borderopacity="1"
     inkscape:showpageshadow="0"
     inkscape:pageopacity="0"
     inkscape:pagecheckerboard="1"
     inkscape:deskcolor="#505050"
     inkscape:export-bgcolor="#22222200"
     inkscape:zoom="0.26025391"
     inkscape:cx="1024"
     inkscape:cy="1120.06"
     inkscape:window-width="1366"
     inkscape:window-height="744"
     inkscape:window-x="0"
     inkscape:window-y="24"
     inkscape:window-maximized="1"
     inkscape:current-layer="svg1" />
  <defs
     id="defs1" />
  <g
     id="g1"
     transform="matrix(1.7117938,0,0,2.131023,-963.92038,-1138.697)"
     style="fill:#ffffff">
    <path
       style="fill:#ffffff;stroke-width:0.778342"
       d="m 1004.767,1488.7002 c -22.33873,-1.5294 -56.01288,-6.6111 -75.16433,-11.3431 -52.45394,-12.9604 -93.89987,-29.8543 -136.47362,-55.6283 -17.1942,-10.4094 -24.3543,-15.2589 -40.71291,-27.5751 -55.89397,-42.0819 -100.92042,-93.0856 -133.24234,-150.9302 -34.43516,-61.6266 -53.71833,-128.5444 -57.93813,-201.0613 -1.11182,-19.1056 -0.48671,-56.25297 1.22291,-72.6724 5.99929,-57.61953 19.87308,-106.79774 44.53067,-157.8476 41.3353,-85.57872 110.55021,-159.9631 193.35122,-207.79225 40.14257,-23.18789 81.10512,-39.47284 126.87568,-50.4402 35.78126,-8.57378 66.49216,-12.09621 105.07305,-12.05159 51.0379,0.0594 98.8695,7.82159 146.1387,23.71661 95.8013,32.21474 176.4022,91.79674 237.0466,175.23 27.4023,37.69956 48.9535,79.02781 63.7883,122.32533 l 3.012,8.79101 h -12.6189 -12.6188 l -1.8232,-5.27461 c -1.9433,-5.62265 -12.253,-30.78661 -16.1038,-39.30678 -3.4666,-7.66999 -14.9925,-29.1897 -21.0367,-39.2771 -44.7793,-74.73412 -106.3506,-132.77212 -183.3905,-172.86635 -31.4889,-16.38794 -61.034,-27.5441 -96.9568,-36.61088 -30.1654,-7.61357 -51.2718,-10.61564 -86.7006,-12.33188 -36.2097,-1.75414 -78.89082,1.78844 -110.98256,9.21158 -40.38312,9.34098 -79.917,23.63651 -110.48729,39.9524 -59.34688,31.67439 -107.15926,71.45347 -148.16492,123.27087 -41.42578,52.34821 -71.41917,114.69223 -85.52616,177.77391 -14.21918,63.58328 -14.83878,124.75493 -1.92725,190.27663 8.49302,43.0995 26.19425,90.5324 47.82487,128.1535 38.15451,66.3602 92.66393,122.7291 157.55787,162.9328 64.13241,39.7318 132.55834,62.0706 205.98964,67.2491 26.0503,1.837 65.3289,0.3005 92.8775,-3.6332 95.0807,-13.5766 188.5806,-62.92 257.1483,-135.7066 37.8364,-40.1645 67.8941,-84.832 87.9473,-130.6947 l 4.1,-9.3771 12.8241,-0.2142 c 7.0533,-0.1179 12.8241,-0.031 12.8241,0.1922 0,1.8696 -10.282,25.5901 -16.268,37.5304 -17.6629,35.2323 -37.9695,65.8442 -64.7952,97.678 -54.0421,64.1313 -122.3142,112.3286 -200.3603,141.446 -35.8139,13.3615 -72.9971,21.774 -113.965,25.784 -15.2692,1.4946 -57.8513,2.1497 -72.8755,1.1211 z m -6.97743,-39.3977 c -85.64679,-7.928 -165.94649,-40.3479 -232.44904,-93.8481 l -10.33367,-8.3133 0.46524,-3.6282 c 0.50594,-3.9455 3.31312,-38.6472 5.88796,-72.7842 1.00219,-13.2876 2.0364,-22.4487 2.70972,-24.0032 1.50775,-3.4808 7.57006,-7.6991 13.33622,-9.2798 11.22097,-3.0759 24.3888,0.6795 29.172,8.3198 1.26997,2.0286 2.30162,11.5683 7.09404,65.5972 1.08654,12.2488 2.66267,29.3116 3.5026,37.9173 1.97097,20.1941 2.12967,18.3452 -1.57388,18.3452 -1.7056,0 -3.08814,0.2637 -3.07225,0.5861 0.0768,1.5602 34.56954,20.3066 50.61339,27.5077 43.33093,19.4488 84.44962,30.7483 129.60841,35.6167 24.60969,2.6531 66.94929,2.2725 91.77149,-0.825 87.2698,-10.89 170.7003,-51.6332 236.0458,-115.2727 34.9153,-34.0039 65.5137,-76.0862 87.0502,-119.7214 l 5.3031,-10.7446 h 9.0933 9.0933 l -2.7301,6.4468 c -1.5016,3.5457 -5.6155,12.073 -9.142,18.9495 -49.6555,96.8265 -131.989,172.0831 -231.5043,211.6056 -34.2367,13.597 -69.1569,22.1546 -109.3133,26.7883 -15.2068,1.7547 -64.7545,2.2096 -80.62823,0.7403 z m -137.99831,-84.273 c 0,-3.0971 3.61043,-44.8451 7.44578,-86.0959 1.85724,-19.9758 3.15078,-30.5283 3.95233,-32.2428 5.69119,-12.1743 31.29701,-13.527 41.18506,-2.1757 1.3413,1.5397 2.60669,3.5842 2.81214,4.5433 0.20537,0.9592 1.08864,10.1833 1.96268,20.4981 2.24844,26.5326 6.96395,83.9544 7.52408,91.622 l 0.47098,6.4467 h -32.67653 -32.67652 z m -122.56362,-33.6348 c -15.75104,-14.2683 -39.76817,-41.4343 -55.22266,-62.4631 -13.37235,-18.1954 -28.16104,-42.2382 -37.39623,-60.7969 -42.98586,-86.3829 -55.72806,-185.1467 -36.00175,-279.04568 12.06974,-57.45286 38.10762,-115.59071 73.24858,-163.55083 23.02378,-31.42261 55.03458,-64.15007 86.45362,-88.38897 56.53458,-43.61486 123.25904,-73.17862 191.87971,-85.01664 55.26889,-9.5347 117.50899,-7.25325 171.33499,6.2803 68.6135,17.25157 126.1346,47.16776 180.6383,93.94824 10.8939,9.3502 36.4608,35.3571 46.3477,47.14535 32.6016,38.87083 57.1457,80.32286 75.6937,127.83694 l 1.6111,4.12725 -8.9784,-0.22013 -8.9784,-0.22013 -3.8581,-8.98637 c -22.5915,-52.62092 -54.6909,-100.02818 -94.2018,-139.12609 -41.6818,-41.246 -90.8028,-72.7541 -145.2465,-93.16668 -50.062,-18.7698 -100.1599,-27.37851 -151.9532,-26.11143 -47.79118,1.16924 -88.9905,9.18759 -134.04672,26.08861 -43.78772,16.42521 -87.62989,42.13921 -122.78054,72.01242 l -6.7651,5.74948 v 43.021 43.02097 l -2.13199,6.51403 -2.132,6.51395 h -2.90727 -2.90727 v -8.89073 c 0,-7.11588 0.24235,-9.09343 1.214,-9.90627 3.98195,-3.33089 4.63768,-12.93905 1.21384,-17.78551 -5.48613,-7.76572 -17.65812,-7.19879 -22.40674,1.04359 -1.46503,2.54306 -1.74389,3.99885 -1.52992,7.98818 0.22793,4.25001 0.58146,5.21092 2.74485,7.46072 l 2.48327,2.58237 v 13.7354 c 0,7.55441 -0.20428,14.74633 -0.45399,15.98199 -0.30422,1.50541 -1.47232,2.88939 -3.54059,4.19492 -3.97583,2.50954 -7.30476,7.61646 -8.51341,13.06025 -1.90988,8.60207 1.60892,19.13191 7.86296,23.52953 1.63938,1.15275 3.19256,2.90791 3.4515,3.90032 0.25894,0.9924 1.88701,3.35301 3.61796,5.24569 3.70642,4.05294 9.69888,6.62484 15.43589,6.62484 2.71446,0 3.84729,0.31085 3.84729,1.0557 0,0.58068 0.87218,2.70912 1.93817,4.72988 1.78669,3.38708 1.93818,4.48397 1.93818,14.03828 v 10.36402 l -4.21476,1.76078 c -2.56072,1.06985 -5.45737,3.11953 -7.38105,5.22312 l -3.16629,3.46225 h -19.2251 c -14.95491,0 -20.10767,0.26412 -23.19829,1.18925 -5.52358,1.65334 -11.81568,7.58497 -15.03267,14.17143 l -2.4811,5.07981 -0.35345,43.51842 c -0.37864,46.61178 -0.21498,49.26258 3.37863,54.73608 l 1.99044,3.0316 -2.56507,3.6664 -2.56498,3.6666 -0.38764,33.3435 -0.38763,33.3435 -4.88631,6.4547 -4.88622,6.4547 -0.0956,11.7044 -0.0955,11.7044 2.49878,3.8869 c 3.03348,4.7186 8.29626,9.3754 14.1632,12.5325 6.86565,3.6944 6.86891,3.6917 6.86891,-5.8838 0,-7.1895 -0.2108,-8.524 -1.65839,-10.4975 -2.38776,-3.2551 -1.76979,-11.9392 1.16803,-16.4137 5.65855,-8.6185 17.87132,-8.2945 24.10086,0.6394 2.06556,2.9623 2.35543,4.034 2.35807,8.7193 0,4.4663 -0.28298,5.6491 -1.74134,7.2156 -1.57388,1.6905 -1.74436,2.654 -1.74436,9.8574 0,6.2465 0.24413,8.0782 1.12197,8.4177 1.6297,0.6304 10.05349,-4.131 14.6034,-8.2543 2.15495,-1.9528 5.01143,-5.3108 6.34777,-7.4621 l 2.42978,-3.9115 -0.81621,-11.4472 -0.8162,-11.4473 -5.23309,-6.6472 -5.23308,-6.6472 v -31.5679 -31.5678 l -1.97578,-3.9963 c -1.0867,-2.198 -2.45862,-4.4003 -3.04883,-4.894 -0.89172,-0.7459 -0.65619,-1.4931 1.39433,-4.4232 l 2.46737,-3.5257 0.23732,-16.3487 c 0.13055,-8.9917 0.40445,-16.34869 0.60874,-16.34869 0.20428,0 1.23128,0.56794 2.28232,1.262 1.84096,1.21579 1.91112,1.58039 1.91678,9.96319 0.009,12.3436 1.14446,20.9638 3.42461,25.9839 2.51924,5.5463 9.41621,12.7704 15.11523,15.832 2.87921,1.5468 4.70055,3.0754 4.99818,4.195 0.25754,0.9688 0.47307,8.0761 0.47888,15.794 l 0.0109,14.0328 -2.64818,2.7678 -2.64825,2.768 -0.23064,71.891 c -0.18343,57.1551 -0.0256,72.4913 0.76954,74.8194 0.83016,2.4305 0.79093,5.2205 -0.23057,16.4099 -1.2585,13.7852 -4.41238,52.4833 -6.01843,73.8465 -0.49276,6.5542 -1.10631,11.9167 -1.36347,11.9167 -0.25708,0 -4.49084,-3.6446 -9.40831,-8.0992 z m 24.87939,-169.6319 c 0,-56.0112 0.17219,-66.9277 1.05259,-66.7164 0.57889,0.1389 11.00862,10.7247 23.17712,23.524 l 22.12454,23.2714 0.34454,6.4227 c 0.60696,11.3163 0.67673,47.3453 0.12241,63.2412 l -0.53711,15.403 -2.17076,-1.558 c -1.19399,-0.8569 -4.19437,-2.5136 -6.66756,-3.6816 -4.07553,-1.9248 -5.33186,-2.1237 -13.41236,-2.1237 -8.46945,0 -9.16781,0.1254 -13.95488,2.5058 -2.7716,1.3782 -6.1731,3.4452 -7.5589,4.5934 l -2.51963,2.0874 z m 150.79032,64.6766 c -1.2792,-1.0768 -4.59348,-3.0685 -7.36508,-4.4259 -4.72505,-2.3142 -5.54691,-2.4634 -13.17961,-2.3919 -8.83321,0.083 -12.26449,0.9955 -18.66397,4.9644 -3.06364,1.9001 -3.76588,2.0865 -4.14165,1.0994 -0.24894,-0.6537 -0.45253,-19.6332 -0.45253,-42.1765 v -40.988 l 6.78363,-7.2009 c 25.98151,-27.5796 38.50269,-40.4117 39.4324,-40.4117 0.90908,0 1.06708,10.1286 1.02103,65.4442 -0.0302,35.9944 -0.29166,66.0294 -0.58145,66.7445 -0.4654,1.1483 -0.79884,1.0714 -2.85277,-0.6576 z m 37.39561,-67.8666 c -2.40094,-1.8994 -5.82586,-5.4032 -7.61092,-7.7863 l -3.2456,-4.3328 0.55936,-10.6391 0.55944,-10.6391 4.01737,-4.7797 c 2.20961,-2.6289 4.80087,-6.0605 5.75833,-7.626 l 1.74088,-2.8461 18.65473,0.2787 18.65474,0.2788 2.97673,4.6421 c 1.63722,2.5532 4.19507,6.0014 5.68421,7.6628 l 2.70737,3.0205 0.2294,10.8278 0.2295,10.8278 -3.45381,4.3631 c -3.14443,3.9723 -10.36709,10.2719 -11.78801,10.2815 -0.3198,0 -0.58145,-2.4718 -0.58145,-5.4977 0,-4.3725 0.33585,-5.9595 1.63668,-7.7329 2.08741,-2.8458 2.65545,-7.9419 1.50681,-13.5187 -1.08096,-5.248 -5.62793,-10.9735 -10.47857,-13.1943 -3.75766,-1.7205 -11.03281,-1.9159 -14.64766,-0.3935 -3.65084,1.5375 -8.07252,5.6839 -10.02496,9.4008 -1.2899,2.4556 -1.6849,4.5766 -1.69862,9.1212 -0.0155,5.1774 0.23428,6.2576 1.98981,8.5956 1.58938,2.117 2.0416,3.6773 2.17014,7.4883 0.0892,2.6477 -0.13986,5.0022 -0.50912,5.2322 -0.36934,0.2301 -2.63585,-1.1357 -5.03678,-3.035 z m -262.71642,-1.4449 c -1.88561,-1.4513 -4.78559,-4.308 -6.44436,-6.3484 l -3.01589,-3.7097 -0.13397,-10.2569 -0.13388,-10.2569 5.30386,-7.3078 c 2.91719,-4.0193 5.30394,-7.6236 5.30394,-8.0096 0,-0.3953 8.10019,-0.7018 18.54325,-0.7018 h 18.54333 l 1.79243,2.9303 c 0.98584,1.6117 3.5992,5.0799 5.80741,7.7071 l 4.01497,4.7769 0.23243,10.3178 0.23242,10.3179 -3.24536,4.2277 c -1.78498,2.3252 -4.73606,5.3187 -6.5581,6.6521 l -3.31266,2.4245 -0.24312,-3.7464 c -0.1801,-2.7762 0.21219,-4.5629 1.51511,-6.8994 1.41386,-2.5356 1.73739,-4.2485 1.65203,-8.7467 -0.12187,-6.4191 -1.74002,-10.3529 -6.04262,-14.6897 -3.64665,-3.6755 -6.69843,-5.159 -11.67869,-5.6771 -5.89075,-0.6128 -10.54548,0.927 -14.99701,4.9611 -5.22734,4.7371 -6.25582,7.3118 -6.25582,15.6607 0,6.103 0.23096,7.2713 1.93818,9.8036 1.89942,2.8175 2.78392,9.2093 1.27439,9.2093 -0.36507,0 -2.20658,-1.1874 -4.09227,-2.6386 z m 128.67328,-28.423 c -7.74016,-7.9678 -44.11008,-48.0066 -45.39742,-49.9768 -0.61952,-0.9481 -0.93629,-2.0338 -0.70402,-2.4126 0.58401,-0.9523 88.53734,-1.8899 115.59555,-1.2322 17.78302,0.4322 22.11415,0.744 22.11415,1.5922 0,0.5801 -2.86664,4.3045 -6.37032,8.2763 -10.81574,12.261 -32.32107,35.8033 -38.89653,42.5809 l -6.25451,6.4468 H 838.8552 821.37366 Z m 339.50838,3.3813 c -4.2583,-1.5319 -6.5423,-3.2446 -9.1318,-6.8478 -3.233,-4.4983 -3.011,-5.6041 1.5049,-7.4958 4.0156,-1.682 4.7126,-1.5768 4.7126,0.7115 0,2.6985 4.431,6.7205 8.4836,7.7004 3.3462,0.8091 4.2167,0.7333 7.283,-0.6338 3.9786,-1.7739 5.1657,-3.5175 5.1657,-7.5872 0,-4.4681 -3.5498,-7.5064 -11.6957,-10.0109 -11.0321,-3.3916 -15.4388,-7.5926 -15.4388,-14.7178 0,-4.9469 1.4327,-8.284 4.8573,-11.3149 3.7672,-3.3338 7.5437,-4.4499 13.4429,-3.9726 6.2952,0.5094 11.174,3.2911 13.853,7.8987 1.0773,1.8529 1.9588,3.554 1.9588,3.7802 0,0.2262 -1.6388,1.042 -3.6417,1.813 -3.0463,1.1726 -3.6997,1.2219 -3.9961,0.3016 -0.1949,-0.6052 -1.6549,-2.419 -3.2446,-4.0307 -2.5686,-2.6043 -3.3198,-2.9303 -6.7531,-2.9303 -6.5325,0 -10.1804,4.7274 -7.9103,10.2513 1.0717,2.6079 3.9538,4.3011 11.6751,6.8593 10.7459,3.5602 14.9849,8.1688 14.9036,16.203 -0.094,9.2947 -6.9567,15.1672 -17.6465,15.1004 -3.0149,-0.019 -6.7868,-0.5038 -8.3819,-1.0776 z m 163.764,0.4282 c -5.7736,-1.9082 -9.8673,-5.4944 -12.1533,-10.647 -1.1868,-2.675 -1.4248,-5.9709 -1.6504,-22.8566 l -0.2637,-19.731 h 3.465 3.4648 l 0.5689,18.7565 c 0.6179,20.3711 0.9777,22.0766 5.3525,25.3688 3.1114,2.3415 11.5366,2.2539 14.8867,-0.1548 4.5967,-3.3049 4.9411,-5.0841 4.9411,-25.5297 v -18.4408 h 3.924 3.924 l -0.2415,20.1217 c -0.2141,17.8428 -0.4051,20.4314 -1.6867,22.8566 -3.6739,6.9526 -9.0398,10.2832 -17.1613,10.6521 -2.9848,0.1355 -6.3013,-0.042 -7.3701,-0.3958 z m 101.9532,-0.4174 c -8.232,-2.056 -15.0291,-7.6364 -18.4795,-15.1715 -2.47,-5.3942 -2.4308,-18.5229 0.071,-23.6391 2.6588,-5.4384 6.7581,-9.7826 11.3833,-12.0635 12.7381,-6.2816 28.9529,-2.2895 35.9927,8.8614 4.772,7.5591 5.7953,16.688 2.8397,25.3348 -2.7411,8.0194 -10.2378,14.5414 -19.0317,16.5574 -6.1845,1.4178 -7.53,1.4305 -12.7751,0.1205 z m 12.1665,-7.6321 c 7.3611,-2.223 13.207,-10.6115 13.2463,-19.0074 0.053,-11.5195 -8.063,-19.9497 -19.1689,-19.9091 -5.9091,0.022 -9.9784,1.8391 -13.8781,6.1983 -4.0134,4.4864 -5.1609,7.5852 -5.1407,13.8811 0.02,6.3692 1.6411,10.3355 5.9074,14.4577 4.9888,4.8202 12.132,6.4637 19.034,4.3794 z m -372.5144,7.4551 c -0.2975,-0.2999 -0.5409,-12.2666 -0.5409,-26.5928 v -26.0474 h 3.8763 3.8764 v 26.1777 26.1777 h -2.2624 c -1.2444,0 -2.7453,0.1868 -3.3355,0.415 -0.5901,0.2283 -1.3164,0.1697 -1.6139,-0.1302 z m 47.5797,-19.857 c -7.4324,-11.1994 -13.7993,-20.5407 -14.1487,-20.7583 -0.3494,-0.2176 -0.6353,8.7676 -0.6353,19.9674 v 20.3631 h -3.8763 -3.8764 v -26.5684 -26.5684 h 3.7832 3.7831 l 8.1568,11.526 c 4.4863,6.3393 10.5463,14.8799 13.4668,18.9791 2.9203,4.0992 5.912,8.3188 6.6481,9.377 1.2804,1.8407 1.3308,1.0355 1.1629,-18.589 l -0.1755,-20.513 4.0805,6e-4 4.0805,7e-4 -0.2041,26.3731 -0.2041,26.373 -4.264,0.1998 -4.264,0.1998 z m 95.3046,-3.0891 v -22.6613 h -6.9774 -6.9775 v -3.5164 -3.5164 h 17.8313 17.8312 v 3.5164 3.5164 h -6.5898 c -4.7234,0 -6.6065,0.2767 -6.649,0.9768 -0.1966,3.2488 -0.4224,14.7667 -0.559,28.522 l -0.1571,15.8238 h -3.8763 -3.8764 z m 34.112,-3.9071 v -26.5684 h 2.65 c 5.4458,0 5.1027,-1.8184 5.1027,27.0427 v 26.0941 h -3.8764 -3.8763 z m 34.1119,3.9071 v -22.6613 h -6.9774 -6.9775 v -3.828 -3.828 l 17.6374,0.2675 17.6375,0.2675 v 3.3652 3.3651 l -6.7837,0.2258 -6.7836,0.2258 v 22.6308 22.6309 h -3.8763 -3.8764 z m 99.0743,7.2282 c -0.1457,-14.0238 -0.3532,-24.9256 -0.5427,-28.522 -0.063,-1.1894 -0.9302,-1.3675 -6.6619,-1.3675 h -6.5898 v -3.8248 -3.8248 l 17.4425,0.113 17.4424,0.1131 v 3.7118 3.7117 h -6.5898 -6.5898 v 22.6613 22.6613 h -3.8763 -3.8764 z m 123.7219,-10.6805 0.094,-26.2373 h 12.0725 c 12.8614,0 16.7988,0.7594 22.4914,4.3513 8.0328,5.0684 12.4506,16.032 10.7596,26.7017 -1.4267,9.0017 -5.865,15.0162 -13.925,18.8704 -4.0082,1.9168 -5.0835,2.0545 -17.9256,2.2962 l -13.6616,0.2572 z m 25.2182,18.229 c 6.8339,-2.0638 11.5553,-8.3915 12.2811,-16.4595 0.5991,-6.6583 -0.9412,-11.2633 -5.1917,-15.5218 -4.2868,-4.2951 -7.4463,-5.3913 -17.2893,-5.9988 l -7.5589,-0.4665 v 19.5841 c 0,14.9075 0.2314,19.6909 0.9691,20.0317 1.5051,0.6953 13.3459,-0.1293 16.7897,-1.1692 z m 29.1874,6.1877 c 0.2938,-0.9333 3.4866,-8.9331 7.095,-17.7774 3.6083,-8.8443 7.9674,-19.8606 9.6866,-24.4808 l 3.126,-8.4003 3.98,0.01 3.9799,0.01 9.3979,23.2402 c 5.1688,12.782 9.9706,24.5588 10.6704,26.1705 l 1.2725,2.9303 h -4.4722 -4.4722 l -1.8108,-4.7071 -1.8108,-4.7071 -12.8516,0.2139 -12.8515,0.214 -1.4852,4.4931 -1.4851,4.4932 h -4.2516 c -4.0108,0 -4.2214,-0.096 -3.7173,-1.6969 z m 33.682,-15.0461 c 0,-0.756 -8.7387,-22.7684 -9.2659,-23.3404 -0.4537,-0.4923 -10.1158,21.7371 -10.1158,23.2734 0,0.2201 4.3609,0.4001 9.6909,0.4001 5.3299,0 9.6908,-0.1499 9.6908,-0.3331 z m 34.3774,10.3295 c -1.3451,-3.564 -5.5952,-14.5897 -9.4447,-24.5016 -9.253,-23.8257 -8.922,-21.8916 -3.6904,-21.5657 l 4.2589,0.2652 2.2285,5.9862 c 1.2256,3.2924 4.6458,12.5786 7.6003,20.6361 4.7245,12.8847 6.5347,16.7138 6.5347,13.8228 0,-0.4567 3.369,-9.951 7.4866,-21.0984 l 7.4867,-20.2679 h 3.709 c 2.04,0 3.8886,0.2929 4.1081,0.6508 0.3435,0.5601 -8.2412,23.867 -16.7419,45.4532 l -2.6156,6.6421 -4.2372,0.2286 -4.2373,0.2285 z m 42.3745,-19.7642 v -26.1777 h 3.8764 3.8763 v 26.1777 26.1777 h -3.8763 -3.8764 z m 26.3592,0.063 v -26.241 h 11.9351 c 15.2877,0 20.533,1.3924 25.9911,6.8995 13.2471,13.3661 10.1981,34.867 -6.0875,42.9286 -4.1294,2.0439 -4.9132,2.1479 -18.0776,2.3953 l -13.7611,0.2586 z m 27.5222,17.2192 c 7.0705,-3.3691 10.4661,-8.7485 10.4661,-16.5807 0,-6.602 -1.4181,-10.3793 -5.4054,-14.3983 -4.37,-4.4047 -7.6956,-5.4484 -17.3612,-5.4484 h -7.4689 v 19.1449 19.1449 l 7.9465,-0.01 c 6.7341,-0.01 8.538,-0.2894 11.8229,-1.8547 z M 688.97304,1104.5458 c -0.86823,-0.8751 -0.60247,-54.6312 0.28173,-56.9752 0.43912,-1.1643 1.87065,-3.4814 3.1811,-5.1491 l 2.38264,-3.0323 12.51807,0.2144 12.51816,0.2143 2.51963,3.8001 2.51963,3.8001 v 28.8243 28.8244 h -17.70208 c -9.73609,0 -17.93459,-0.2344 -18.21888,-0.521 z M 952.4372,1083.773 c -0.79814,-30.1863 -0.54501,-34.4795 2.29225,-38.8758 3.57369,-5.5374 3.37731,-5.47 15.92562,-5.47 12.44187,0 12.48094,0.012 15.79205,5.0653 l 2.0392,3.1118 v 28.7312 28.7313 H 970.7433 953.0002 Z m -158.58001,-17.1849 c -0.0202,-0.111 -0.0846,-2.6632 -0.14413,-5.6717 l -0.10822,-5.47 44.75636,-0.2017 44.75634,-0.2017 -0.22792,5.6717 -0.22786,5.6716 -44.38429,0.2018 c -24.41138,0.111 -44.40051,0.111 -44.42028,0 z m -28.67063,-21.1896 c -8.07212,-1.753 -14.42144,-6.8072 -18.29966,-14.5669 -2.81811,-5.6388 -3.12923,-12.3809 -2.78927,-60.44465 0.24204,-34.21605 0.35941,-36.88179 1.79498,-40.7489 2.06804,-5.5714 6.77169,-10.76373 12.17177,-13.43659 l 4.43029,-2.19275 50.005,-0.39071 c 27.50278,-0.21489 61.34338,-0.21489 75.20136,0 l 25.19632,0.39071 4.37865,2.06913 c 7.74753,3.66113 12.73958,10.0152 14.51999,18.48169 1.20368,5.72401 1.20291,83.67747 -7.8e-4,89.39617 -1.25377,5.9559 -3.89109,10.7484 -8.0322,14.5958 -4.59348,4.2677 -8.91554,6.1845 -16.05122,7.1184 -8.67505,1.1354 -137.17337,0.8907 -142.52507,-0.2714 z m 42.51225,-45.62853 0.23839,-3.32105 h -12.28464 c -11.19787,0 -12.59072,-0.15558 -15.74383,-1.75821 -2.52707,-1.28442 -3.92923,-2.69771 -5.20354,-5.24483 -1.65358,-3.30511 -1.74436,-4.39465 -1.74436,-20.92817 0,-19.64726 0.32647,-21.24481 5.09043,-24.90726 l 2.92921,-2.25191 h 57.17978 c 56.80313,0 57.19418,0.0109 59.36858,1.63466 1.20392,0.89911 2.99046,2.82204 3.97009,4.27322 1.75591,2.60089 1.77793,2.91119 1.55054,21.80797 -0.2242,18.63626 -0.28088,19.24053 -2.03617,21.721 -3.81007,5.38417 -2.63615,5.23836 -44.17249,5.48677 l -37.45005,0.22388 0.237,3.29253 0.237,3.29243 36.40646,0.2032 c 40.31117,0.225 41.58246,0.1008 47.22907,-4.61416 1.65397,-1.38109 3.83101,-4.29424 4.83785,-6.47355 1.76716,-3.82523 1.83088,-4.62915 1.83817,-23.20454 0.009,-21.42273 -0.4288,-24.00018 -4.87087,-28.71302 -1.36766,-1.45103 -4.23097,-3.47085 -6.36297,-4.48842 l -3.87635,-1.85026 -56.26293,-0.008 c -63.54607,-0.009 -61.00869,-0.23232 -67.1079,5.9153 -5.29309,5.33509 -5.86059,8.45297 -5.56893,30.59415 l 0.24467,18.5735 2.3152,4.2136 c 1.31741,2.39764 3.55694,5.04182 5.19641,6.13542 5.41705,3.61328 7.90498,4.07008 21.17344,3.88738 l 12.40434,-0.1708 z m 57.68587,-15.0317 c 1.96175,-0.0156 3.08946,-2.62402 2.17859,-5.03886 -0.69386,-1.83947 -1.13337,-2.00466 -5.33208,-2.00466 -5.16858,0 -6.56988,1.00749 -6.17853,4.44224 0.19537,1.71452 0.75682,2.30449 2.57569,2.7063 1.2792,0.28264 3.02356,0.37704 3.87636,0.20973 0.85279,-0.16722 2.14874,-0.30889 2.87997,-0.31475 z m 22.8978,-0.97616 c 1.39138,-1.13252 1.21237,-5.02463 -0.25723,-5.59304 -0.67449,-0.26092 -2.91727,-0.47432 -4.98391,-0.47432 -3.74247,0 -6.19411,1.35475 -6.19411,3.42287 0,1.27278 1.64063,3.31847 3.10108,3.86672 1.5531,0.58294 7.11909,-0.23326 8.33417,-1.22223 z m -21.15444,-13.06869 c 1.81235,-2.01849 1.03878,-5.31415 -1.39162,-5.92897 -0.98118,-0.24818 -3.50515,-0.34148 -5.60893,-0.20723 -3.74123,0.23864 -3.83054,0.30319 -4.07979,2.94448 -0.32646,3.45889 1.30556,4.72308 6.09736,4.72308 2.59871,0 3.99264,-0.42838 4.98298,-1.53136 z m 20.53275,0.77158 c 1.92934,-1.0407 2.46381,-2.7864 1.57465,-5.14356 -0.71076,-1.88433 -1.00351,-1.97114 -5.90563,-1.75141 -3.69548,0.16566 -5.37798,0.58458 -5.93439,1.47775 -1.06003,1.70163 -0.0768,5.20085 1.58435,5.63844 2.52071,0.66406 7.26406,0.54317 8.68102,-0.22122 z m -20.02045,-14.37913 c 1.31656,-2.91245 -0.23313,-4.98627 -4.16856,-5.57859 -1.81111,-0.27256 -4.25229,-0.12682 -5.42489,0.32383 -1.75537,0.6746 -2.13199,1.2945 -2.13199,3.50859 0,3.17109 0.51966,3.45788 6.41258,3.53914 3.98637,0.0547 4.56588,-0.14065 5.31286,-1.79297 z m 20.6809,0.917 c 1.47411,-1.48588 1.13027,-5.15083 -0.56928,-6.06768 -3.97404,-2.14368 -10.90473,-0.35477 -10.90473,2.81469 0,3.15883 1.49557,4.1907 6.0744,4.1907 2.45808,0 4.88794,-0.42197 5.39961,-0.93771 z m -196.02299,74.35453 c -1.26904,-1.3693 -2.48776,-3.2398 -2.70817,-4.1567 -0.22049,-0.9168 -0.30414,-18.3249 -0.18591,-38.68457 l 0.21498,-37.01761 8.22253,9.66777 c 4.52247,5.31728 10.62773,12.44347 13.56725,15.83603 2.9396,3.39255 7.08908,8.31653 9.22108,10.94227 l 3.87635,4.77411 -0.22149,17.6425 -0.22142,17.6426 -2.21146,2.6721 -2.21146,2.6721 -12.51746,0.2495 -12.51753,0.2495 z m 265.41328,1.2097 c -0.91273,-0.6443 -2.38582,-2.3562 -3.27359,-3.804 -1.501,-2.4479 -1.61411,-3.7811 -1.61411,-19.0173 v -16.385 l 3.68254,-4.62181 c 4.85103,-6.08839 25.63962,-31.11215 29.15633,-35.09624 l 2.75904,-3.1257 0.0326,37.43965 0.0326,37.4397 -1.96252,3.3754 c -1.07934,1.8564 -2.62631,3.7334 -3.43771,4.1711 -0.8114,0.4377 -6.47918,0.7958 -12.59514,0.7958 -8.62714,0 -11.49193,-0.2627 -12.77934,-1.1716 z m 224.22007,-2.7367 c -19.3194,-3.5135 -34.737,-18.633 -38.0395,-37.30377 -1.3515,-7.64053 -1.3461,-10.76841 0.033,-18.56608 1.4766,-8.35444 5.9831,-17.4013 11.8922,-23.87344 8.3303,-9.12398 18.6628,-13.90661 31.5361,-14.59699 23.4427,-1.25724 43.2031,13.03555 48.8214,35.31277 1.5393,6.1037 1.4967,17.37871 -0.09,23.81467 -3.8598,15.65594 -15.7011,28.49474 -30.6795,33.26394 -6.9528,2.2139 -17.2946,3.0725 -23.4728,1.9489 z m 19.2619,-19.5551 c 6.2073,-2.3503 12.8406,-9.021 15.2367,-15.32274 2.5858,-6.80081 2.9157,-15.22151 0.8581,-21.90245 -4.0879,-13.27233 -14.6794,-20.45986 -28.9248,-19.62866 -8.7306,0.50941 -15.1485,3.88172 -20.1885,10.60829 -4.818,6.43034 -6.3056,11.58922 -5.8869,20.41595 0.6495,13.69289 7.5061,22.81641 20.4037,27.14961 4.2373,1.4236 12.8849,0.8066 18.5017,-1.32 z m 183.8442,19.9008 c -0.8528,-0.1979 -3.4693,-0.7453 -5.8145,-1.2164 -11.6545,-2.3408 -25.2541,-13.115 -30.4625,-24.1337 -15.4221,-32.62663 6.9232,-69.53382 42.0915,-69.52163 22.0636,0.008 40.0375,13.53074 46.1852,34.74828 2.1801,7.5244 1.8562,19.55012 -0.7332,27.21527 -6.5258,19.31818 -22.9279,31.90758 -42.8919,32.92148 -3.7532,0.1906 -7.5218,0.1846 -8.3746,-0.013 z m 13.2571,-18.6156 c 8.6388,-2.3187 15.856,-8.6726 19.0573,-16.77806 1.3897,-3.51859 1.7484,-5.99961 1.7702,-12.24342 0.026,-7.28827 -0.1477,-8.18909 -2.4995,-13.0043 -3.0986,-6.34399 -7.4502,-10.85312 -13.2393,-13.7186 -3.9133,-1.93699 -5.2343,-2.17337 -12.1436,-2.17337 -8.7108,0 -12.7253,1.33701 -18.5448,6.17645 -7.2018,5.98899 -11.4402,17.98681 -9.7696,27.65576 3.1629,18.30734 18.3544,28.65234 35.3693,24.08554 z m 210.6004,18.2375 c -23.1574,-4.1836 -38.987,-23.3577 -38.9438,-47.17225 0.041,-22.57322 14.3351,-41.06249 35.6628,-46.12908 6.5388,-1.55332 19.2743,-1.56097 25.2155,-0.0149 10.1255,2.63457 18.6325,7.87214 22.8707,14.0811 l 2.3237,3.40412 -4.4724,2.87142 c -2.4597,1.57933 -5.8056,3.92954 -7.4351,5.22272 l -2.9629,2.35115 -2.2978,-2.80977 c -1.2912,-1.57879 -4.5712,-3.93775 -7.487,-5.38463 -4.8743,-2.41866 -5.6851,-2.57487 -13.3621,-2.57487 -7.6728,0 -8.4897,0.15714 -13.349,2.5683 -17.8697,8.86705 -21.3704,34.05375 -6.7397,48.48989 10.3296,10.1921 28.7445,10.2269 39.7648,0.075 3.6817,-3.3917 4.295,-3.7021 5.1828,-2.624 0.5538,0.6727 3.8999,3.0048 7.4357,5.1826 l 6.4288,3.9597 -2.3421,2.9806 c -4.7097,5.9936 -14.627,12.1898 -22.94,14.3325 -6.041,1.5571 -17.2491,2.1488 -22.5529,1.1906 z m -350.2893,-1.4642 c -0.1788,-0.179 -0.3251,-20.8379 -0.3251,-45.90864 v -45.58302 h 21.2142 c 22.3943,0 26.8198,0.43736 32.7221,3.23376 8.0195,3.79952 12.0468,10.21141 12.5814,20.03063 0.3292,6.04767 0.1929,6.78932 -2.1188,11.52209 -1.4578,2.98488 -3.5892,5.91835 -5.1996,7.15644 l -2.7291,2.09804 2.1944,1.12267 c 3.6353,1.85987 7.0276,5.60383 8.9106,9.8343 2.4737,5.55741 2.5359,15.66383 0.1287,20.93743 -3.8242,8.3785 -11.4387,13.839 -21.6491,15.5252 -4.9583,0.8188 -44.9161,0.8461 -45.7297,0.031 z m 47.5593,-19.9314 c 2.7335,-2.5249 2.8959,-2.9402 2.8959,-7.4084 0,-4.26198 -0.242,-4.97746 -2.4281,-7.18091 -3.0042,-3.0281 -6.4214,-3.7585 -17.729,-3.78944 -12.9795,-0.0352 -12.0167,-0.91583 -12.0167,10.98635 v 10.0674 h 13.191 13.191 z m -3.6196,-36.60257 c 2.598,-1.77938 3.802,-4.51655 3.802,-8.64294 0,-7.36671 -3.5779,-9.12343 -18.5816,-9.12343 h -10.8787 v 9.83789 9.83797 l 11.8229,-0.26553 c 9.7206,-0.21825 12.1808,-0.51058 13.8354,-1.64396 z m -243.5096,10.7556 v -45.71329 h 20.0513 c 22.1891,0 26.1771,0.47346 33.2161,3.944 5.5271,2.72513 9.5781,7.00679 12.5335,13.24732 1.8152,3.83288 2.0354,5.22757 2.0354,12.89349 0,7.76032 -0.2037,9.0138 -2.0967,12.89873 -2.4386,5.0047 -7.4884,10.44107 -11.7287,12.62663 -2.1291,1.09736 -2.8368,1.88558 -2.4963,2.78 0.4225,1.10993 11.4612,21.00119 16.4905,29.71539 l 1.9167,3.321 -10.7336,-0.013 -10.7337,-0.013 -8.1404,-15.4201 -8.1403,-15.4201 -6.7836,-0.22575 -6.7837,-0.22583 v 15.65898 15.6594 h -9.3032 -9.3033 z m 43.1195,-4.00347 c 4.0371,-1.9309 6.0085,-5.28946 6.3455,-10.81038 0.2416,-3.95775 -0.01,-5.15747 -1.5267,-7.41454 -3.3853,-5.0226 -5.8828,-5.86997 -18.1847,-6.16941 l -10.9481,-0.26647 -0.5267,2.83055 c -0.5665,3.04326 -0.5092,21.54198 0.07,22.51266 0.1921,0.32234 5.2475,0.58607 11.2342,0.58607 8.4366,0 11.4811,-0.2853 13.5367,-1.26848 z m 370.8649,14.3821 c -0.01,-19.46136 -0.2185,-36.16601 -0.4726,-37.12146 -0.4463,-1.67803 -0.8361,-1.74468 -11.4247,-1.95356 l -10.9626,-0.21629 v -8.20495 -8.20495 l 31.9432,-0.20403 31.9432,-0.20395 0.4682,2.54822 c 0.2574,1.40156 0.3613,5.1856 0.2305,8.40898 l -0.2376,5.86068 -11.9145,0.21614 -11.9146,0.21622 0.2855,36.90149 0.2855,36.9014 -9.1095,0.2201 -9.1094,0.2202 z m 58.156,-10.37863 v -45.71329 h 8.9156 8.9156 v 45.71329 45.71327 h -8.9156 -8.9156 z m 134.1219,45.38947 c 0,-0.5742 27.6732,-71.64 31.672,-81.33497 l 3.8678,-9.37708 8.1037,-0.22083 8.1039,-0.22076 4.84,11.5514 c 9.4358,22.51993 31.7936,78.49764 31.7936,79.60234 0,0.1781 -4.5049,0.3237 -10.0108,0.3237 h -10.0108 l -1.9755,-5.2746 c -1.0866,-2.901 -2.3295,-6.2416 -2.762,-7.4235 l -0.7865,-2.1489 h -18.87 -18.8699 l -1.8131,5.2746 c -0.9971,2.901 -2.2917,6.2416 -2.8767,7.4235 l -1.0637,2.1489 h -9.671 c -5.3191,0 -9.671,-0.1457 -9.671,-0.3238 z m 56.5948,-30.97596 c 0,-0.79517 -9.8485,-26.92966 -11.8719,-31.50419 -0.9584,-2.16658 -1.2065,-1.67068 -7.231,14.45642 l -6.2384,16.69988 2.0106,0.49363 c 3.5715,0.87676 23.3307,0.75329 23.3307,-0.14574 z M 729.03651,983.75078 c -5.92587,-6.1627 -27.89659,-31.95234 -34.99653,-41.0796 l -3.23389,-4.15733 1.5721,-3.10608 c 1.98322,-3.91838 6.54817,-9.04694 9.35473,-10.50976 1.65427,-0.86223 5.65592,-1.1215 17.30801,-1.1215 h 15.15633 v 32.03837 c 0,17.62111 -0.2736,32.03838 -0.60797,32.03838 -0.33438,0 -2.38311,-1.84612 -4.55278,-4.10248 z m 213.53172,-28.32692 -0.21057,-32.42932 h 14.73016 c 13.5778,0 14.94243,0.13143 17.44361,1.64278 3.85155,2.32732 6.67827,5.17139 9.42001,9.47789 2.20232,3.45921 2.29256,3.8668 1.21578,5.48841 -1.59333,2.39952 -28.10514,33.85112 -35.23469,41.79969 -3.18032,3.54571 -6.091,6.44674 -6.46809,6.44674 -0.38298,0 -0.7786,-14.31592 -0.89621,-32.42932 z m 439.47257,-28.71701 c -2.4008,-8.42727 -2.4101,-8.11822 0.2741,-9.06139 1.3398,-0.47073 7.6567,-3.20017 14.0376,-6.06534 6.3808,-2.86509 11.7803,-5.02908 11.9989,-4.80872 0.9686,0.97639 3.5758,12.4784 2.9548,13.03594 -0.9899,0.88872 -25.8903,11.00198 -27.0887,11.00198 -0.5544,0 -1.5339,-1.84611 -2.1767,-4.10247 z m -584.27128,-27.9359 v -5.46997 h 39.9265 39.92648 v 5.46997 5.46996 h -39.92648 -39.9265 z m 276.38428,2.07983 c -5.2814,-1.76398 -7.8064,-3.42943 -11.5323,-7.60637 -4.5316,-5.08028 -6.2581,-10.49656 -5.7276,-17.96908 1.4625,-20.60325 25.3216,-29.60096 41.6281,-15.69865 l 2.6606,2.26832 -3.2266,2.05304 c -3.4383,2.18767 -4.808,2.54509 -4.808,1.25442 0,-0.43924 -1.6572,-1.87066 -3.6826,-3.18095 -3.3805,-2.18689 -4.1396,-2.36068 -9.2544,-2.11898 -7.0772,0.33445 -11.1363,2.91604 -14.3578,9.13148 -6.3677,12.28601 1.4936,25.80988 15.0338,25.86263 5.2959,0.0203 7.3766,-0.70141 10.8309,-3.75834 l 2.6186,-2.31739 3.344,1.99052 3.3441,1.99052 -2.194,1.88167 c -6.6182,5.67595 -17.8356,8.50213 -24.6768,6.21716 z m 83.2526,0.0156 c -4.3767,-1.6513 -7.5454,-4.28259 -9.4255,-7.82666 -1.619,-3.05208 -1.7422,-4.38949 -1.9722,-21.42336 l -0.2454,-18.1681 h 3.5403 3.5403 v 16.43498 c 0,17.42458 0.4159,19.94053 3.7984,22.97918 1.136,1.02046 3.1939,1.62497 6.3037,1.85166 5.2919,0.38586 7.638,-0.72493 10.0891,-4.77677 1.3748,-2.27261 1.5109,-4.02519 1.5135,-19.49308 v -16.99594 h 3.4888 3.4887 l -0.01,16.99597 c -0.01,18.18224 -0.4729,21.45102 -3.6117,25.21092 -4.2562,5.09832 -14.1451,7.61138 -20.5065,5.21123 z m 39.1728,-0.4676 c -0.1761,-0.1791 -0.3201,-10.81623 -0.3201,-23.63807 v -23.31242 l 10.2723,0.008 c 11.9317,0.008 15.4842,0.79307 18.8374,4.17867 4.3888,4.4313 4.1773,12.50176 -0.4302,16.40951 l -2.3022,1.95254 2.6219,1.63325 c 6.9911,4.35511 6.7562,16.49312 -0.4018,20.75352 -2.2453,1.3364 -4.461,1.61943 -15.2915,1.95356 -6.966,0.2149 -12.8096,0.2442 -12.9858,0.0649 z m 25.3337,-8.55198 c 2.2566,-2.81149 1.9274,-6.81152 -0.7855,-9.54603 -2.1892,-2.20658 -2.5183,-2.2841 -9.6909,-2.2841 h -7.4247 v 7.10392 7.10393 l 8.2102,-0.26647 c 7.5298,-0.24443 8.3329,-0.41939 9.6909,-2.11125 z m -3.6805,-19.73056 c 3.7776,-1.73484 4.6149,-6.46323 1.7412,-9.83344 -1.8003,-2.11133 -2.1375,-2.19244 -9.1095,-2.19244 h -7.2399 l -0.2252,6.44675 -0.2252,6.44674 h 6.5847 c 3.6216,0 7.4348,-0.39047 8.4739,-0.86761 z m 100.5196,5.0487 v -23.71665 h 14.3425 14.3425 v 3.1257 3.12569 h -10.8538 -10.8538 v 7.03281 7.03282 h 9.6005 c 9.3007,0 9.6151,0.0547 10.0679,1.7582 1.2119,4.55766 1.3495,4.49319 -9.5898,4.49319 h -10.0786 v 7.03281 7.03282 h 10.8538 10.8538 l -0.01,3.32105 -0.01,3.32105 -14.3376,0.0786 -14.3319,0.0786 z M 1110.9792,876.891 v -23.44271 h 3.4888 3.4887 v 20.31702 20.31702 h 8.9156 8.9156 v 3.12569 3.1257 h -12.4043 -12.4044 z m 154.2791,0 v -23.44271 h 10.3254 c 6.901,0 11.6185,0.38704 14.2245,1.16706 5.865,1.75554 10.5577,5.77214 13.3692,11.44309 2.0511,4.13709 2.395,5.69056 2.395,10.81811 0,8.03092 -1.6759,12.7179 -6.1653,17.24297 -5.2298,5.27133 -8.6675,6.2142 -22.6579,6.2142 h -11.4909 z m 24.2642,16.13554 c 3.3136,-1.39546 7.2386,-5.99461 8.2506,-9.66746 2.8305,-10.27353 -1.6587,-19.95381 -10.4478,-22.52915 -4.9432,-1.44845 -15.5206,-1.28552 -15.3997,0.23724 0.043,0.53723 0.1298,8.18542 0.1938,16.99597 l 0.1163,16.01919 h 7.39 c 4.4529,0 8.3863,-0.41963 9.8968,-1.05579 z m -516.65083,-8.60871 c -4.29097,-1.5598 -7.54153,-4.22219 -9.2317,-7.56152 -1.4534,-2.87166 -1.53248,-4.68237 -1.52379,-34.90292 0.0101,-34.39241 0.18358,-36.19797 4.26151,-44.32181 4.73807,-9.43897 13.57748,-17.54687 23.37257,-21.43836 l 3.96621,-1.57574 0.32562,7.57239 c 0.34623,8.0514 1.24881,10.72168 4.85141,14.35288 4.51953,4.55538 4.4751,4.55015 38.36906,4.55015 34.69612,0 33.93581,0.10815 39.34325,-5.59687 3.28389,-3.46452 3.96892,-5.55131 4.48029,-13.6478 0.237,-3.75154 0.51998,-6.91091 0.6289,-7.0207 0.10893,-0.10979 2.57522,0.81119 5.48063,2.0467 12.99231,5.52482 22.70444,17.38394 25.28323,30.87257 0.61029,3.19227 0.81861,14.61645 0.65627,35.99191 l -0.23778,31.31517 -2.13285,3.24744 c -1.17314,1.78602 -3.61525,4.04543 -5.4269,5.02096 l -3.29405,1.77367 -63.18462,0.17027 c -50.32313,0.13566 -63.75517,-0.0367 -65.98726,-0.84839 z m 99.32393,-21.50884 c 0,-1.76399 -0.40717,-3.1593 -0.96909,-3.32105 -0.533,-0.15348 -16.05781,-0.17684 -34.49958,-0.0516 l -33.53051,0.22693 v 3.09405 3.09412 h 34.4996 34.49958 z M 809.06165,842.9104 c 3.83132,-2.26308 7.32454,-8.4207 7.29732,-12.86294 -0.0527,-8.64012 -8.68156,-16.01825 -16.96859,-14.50932 -9.65818,1.7586 -15.01786,12.79222 -10.58982,21.80094 3.44964,7.0182 13.24954,9.71294 20.26109,5.57132 z m 73.59143,-0.73313 c 7.7193,-5.93452 7.56828,-19.09128 -0.2791,-24.30111 -6.23915,-4.14225 -13.81347,-3.03614 -19.02508,2.77828 -3.25017,3.62611 -3.86093,5.65446 -3.39771,11.28438 0.40725,4.94985 3.02248,8.94371 7.44052,11.36299 4.31609,2.36334 11.40377,1.84112 15.26137,-1.12454 z m -136.17351,26.15566 c -3.57446,-1.11939 -6.47506,-3.21822 -8.44139,-6.10816 -1.8584,-2.73123 -1.90848,-3.20172 -2.1492,-20.17003 -0.22692,-16.00309 -0.12645,-17.61048 1.27423,-20.37672 0.83637,-1.65169 2.18107,-3.6051 2.98829,-4.34081 2.1658,-1.97411 6.80657,-3.74153 9.82416,-3.74153 h 2.64856 l 0.56897,25.99617 c 0.3129,14.29794 0.43764,26.69328 0.27716,27.54519 -0.32809,1.74265 -3.50787,2.28652 -6.99078,1.19589 z m 175.3334,-26.9928 v -27.93801 l 4.21732,0.3525 c 5.26309,0.43994 9.73036,3.26049 11.7049,7.39016 1.19275,2.49477 1.48991,5.46278 1.76428,17.62087 0.40399,17.90054 0.0202,20.9141 -3.12388,24.52327 -3.03379,3.4828 -5.55583,4.78489 -10.56501,5.45465 l -3.99761,0.53449 z m -193.24783,10.33034 c -2.36791,-3.65089 -3.19551,-9.02247 -2.16269,-14.03726 0.81008,-3.93298 3.33483,-8.69334 4.04552,-7.62763 0.14327,0.21489 0.0861,5.65196 -0.12707,12.08245 -0.38159,11.50889 -0.40903,11.65876 -1.75576,9.58244 z m 215.93871,-10.6583 c 0.0848,-6.41002 0.42655,-11.48498 0.75945,-11.27759 0.33291,0.20731 1.33417,1.81712 2.22503,3.57728 1.29277,2.55416 1.5569,4.23938 1.30827,8.34725 -0.29793,4.92132 -2.39179,11.00776 -3.78689,11.00776 -0.36306,0 -0.59068,-5.24461 -0.50586,-11.6547 z M 738.07361,798.77605 c 0,-11.65384 -0.10156,-12.53005 -1.54255,-13.30733 -1.8729,-1.0103 -3.88543,-4.74019 -3.88148,-7.19371 0.008,-2.7374 2.63205,-6.49199 5.33232,-7.61935 1.95105,-0.81456 2.87137,-0.81987 4.76963,-0.0274 5.7253,2.3903 7.27855,9.15626 3.0748,13.39345 l -2.32582,2.34427 -0.0109,9.90298 c -0.008,5.44668 -0.20987,10.65143 -0.45338,11.56601 -0.36205,1.3596 -3.13837,3.41631 -4.61186,3.41631 -0.19312,0 -0.35112,-5.61391 -0.35112,-12.47535 z m 195.17461,10.81663 -2.90726,-1.50432 v -11.11919 -11.11912 l -2.32582,-2.2126 c -1.91329,-1.82017 -2.32581,-2.83524 -2.32581,-5.72291 0,-10.42677 14.64875,-10.93931 16.02951,-0.56083 0.38407,2.88643 0.14032,3.54134 -2.35334,6.32344 l -2.78175,3.1035 -0.21413,12.15817 -0.21413,12.15818 z M 805.8466,794.08439 c -0.88753,-0.36188 -2.55483,-1.78532 -3.70502,-3.16305 -2.06067,-2.46836 -2.08811,-2.64989 -1.87499,-12.38135 l 0.21638,-9.87618 33.47151,-0.20364 c 30.62927,-0.18629 33.78928,-0.0842 37.21303,1.20285 l 3.74154,1.4064 v 8.2098 c 0,9.16344 -0.79597,11.28094 -5.27526,14.03382 -2.34613,1.44189 -4.05971,1.52011 -32.32541,1.47596 -16.41639,-0.0258 -30.57417,-0.34266 -31.46178,-0.70461 z"
       id="path1" />
  </g>
</svg>
